Coordinates
version=1
nRows=10
nColumns=22
inDegrees=yes

Units are S.I. units (second, meters, Newtons, ...)
If the header above contains a line with 'inDegrees', this indicates whether rotational values are in degrees (yes) or radians (no).

endheader
time	pelvis_tilt	pelvis_list	pelvis_rotation	pelvis_tx	pelvis_ty	pelvis_tz	hip_flexion_r	hip_adduction_r	hip_rotation_r	knee_angle_r	ankle_angle_r	subtalar_angle_r	hip_flexion_l	hip_adduction_l	hip_rotation_l	knee_angle_l	ankle_angle_l	subtalar_angle_l	lumbar_extension	lumbar_bending	lumbar_rotation
      3.12000000	     -5.19684541	     -5.73675479	      4.45781038	      0.28957443	      0.93989308	     -0.29033863	      4.62715834	      6.51642177	     -2.97885417	    -29.77681748	     19.02618221	      7.16082830	     28.17842777	     -5.48667877	     11.35378924	    -12.56017214	      4.45233785	      2.95836653	     -1.78883174	      4.70548441	     -1.68836537
      3.13000000	     -5.24018278	     -5.81316610	      4.65535882	      0.28124248	      0.94004600	     -0.28830664	      5.24683416	      6.68314352	     -3.32272533	    -29.81740092	     19.19091311	      6.72739376	     28.22097730	     -5.62436801	     11.48577625	    -11.77331440	      5.60055777	      2.92164090	     -1.93870794	      4.82686465	     -1.61234284
      3.14000000	     -5.24025478	     -5.83917013	      4.84445101	      0.27314017	      0.94040647	     -0.28636002	      5.82615311	      6.79352452	     -3.62391430	    -29.88898108	     19.33718415	      6.51175428	     28.20469166	     -5.71630420	     11.46737510	    -11.07373535	      6.63074431	      2.84552029	     -2.11945742	      4.89395323	     -1.55159434
      3.15000000	     -5.30094334	     -5.88169127	      5.05332557	      0.26517634	      0.94082328	     -0.28450636	      6.48987175	      6.91269332	     -3.94743711	    -29.98779467	     19.32041385	      6.01371964	     28.27170594	     -5.79363527	     11.43091039	    -10.50207409	      7.39880919	      2.81421098	     -2.21035270	      4.97118629	     -1.51593289
      3.16000000	     -5.30672858	     -5.86676605	      5.25793532	      0.25746398	      0.94144659	     -0.28275934	      7.07001991	      6.97312969	     -4.21441763	    -30.07643637	     19.29334153	      5.65360471	     28.29061572	     -5.80656513	     11.26070171	    -10.11147271	      7.94085237	      2.74158048	     -2.34581457	      4.98874138	     -1.51331753
      3.17000000	     -5.30500696	     -5.83308289	      5.48412521	      0.24996836	      0.94219601	     -0.28116384	      7.61121861	      6.99884188	     -4.49676246	    -30.13252065	     19.24430577	      5.39872932	     28.34587926	     -5.76674396	     11.02348851	     -9.96111997	      8.22257537	      2.63472517	     -2.46628171	      4.98692339	     -1.54385290
      3.18000000	     -5.28993989	     -5.77789412	      5.72538263	      0.24266723	      0.94307191	     -0.27970583	      8.10400452	      6.99338466	     -4.77204538	    -30.15096854	     19.15339919	      5.15029380	     28.42755594	     -5.67588297	     10.75866822	    -10.06178601	      8.26983784	      2.48703336	     -2.58333361	      4.96439198	     -1.60825113
      3.19000000	     -5.25480869	     -5.70158320	      5.98402577	      0.23556436	      0.94407551	     -0.27838708	      8.52938984	      6.95639491	     -5.04687447	    -30.11376053	     19.03627177	      4.93417626	     28.52512425	     -5.53593169	     10.49894011	    -10.41554789	      8.12813465	      2.31032467	     -2.70423742	      4.92143318	     -1.70573299
      3.20000000	     -5.19339000	     -5.60126774	      6.25268232	      0.22865591	      0.94521029	     -0.27723036	      8.87632773	      6.88181958	     -5.32244100	    -30.01303920	     18.88457357	      4.77423597	     28.61533286	     -5.34970009	     10.27539523	    -10.99948838	      7.88652173	      2.14400454	     -2.83766105	      4.86212492	     -1.83238423
      3.21000000	     -5.14868019	     -5.52177537	      6.53112139	      0.22187494	      0.94639729	     -0.27618154	      9.20416688	      6.82328033	     -5.59639064	    -29.85802362	     18.72377606	      4.51330247	     28.73563774	     -5.16034238	     10.15646749	    -11.76336490	      7.49052730	      1.89775242	     -2.93449637	      4.82633110	     -1.95630727
